<svg
    viewBox="0 0 512.002 512.002"
    xmlns="http://www.w3.org/2000/svg"
    xmlns:xlink="http://www.w3.org/1999/xlink"
>
    <linearGradient
        id="diet_gradient"
        gradientUnits="userSpaceOnUse"
        x1="256.001"
        x2="256.001"
        y1="512.001"
        y2=".001"
    >
        <stop offset="0" stop-color="rgba(132, 204, 22, 1)" />
        <stop offset="1" stop-color="rgba(45, 212, 191, 1)" />
    </linearGradient>
    <g>
        <g>
            <path
                d="m462.131 185.346 47.35-71.025c4.595-6.893 2.732-16.206-4.161-20.801-6.891-4.594-16.206-2.732-20.801 4.161l-32.52 48.78v-70.458c0-8.284-6.716-15-15-15s-14.99 6.716-14.99 15v70.457l-32.528-48.778c-4.596-6.894-13.91-8.755-20.801-4.161-6.893 4.595-8.756 13.908-4.161 20.801l47.349 71.025c-29.03 10.357-49.869 38.113-49.869 70.655 0 17.759 6.953 79.48 17.848 135.776 7.699 39.784 23.1 120.223 57.154 120.223 34.203 0 49.625-81.321 57.153-120.224 10.894-56.296 17.846-118.017 17.846-135.776 0-32.542-20.839-60.298-49.869-70.655zm4.382 191.118c-12.999 70.725-24.344 94.835-29.513 102.69-5.168-7.855-16.514-31.965-29.513-102.69-9.455-51.438-15.488-105.703-15.488-120.462 0-24.802 20.17-44.982 44.969-44.999.006 0 .012.001.018.001.005 0 .009-.001.014-.001s.009.001.014.001c.006 0 .012-.001.018-.001 24.798.017 44.968 20.196 44.968 44.998 0 14.76-6.033 69.025-15.487 120.463zm-149.513-316.463h-167v-15c0-24.813-20.187-45-45-45s-45 20.187-45 45v15h-45c-8.284 0-15 6.716-15 15v422c0 8.284 6.716 15 15 15h302c8.284 0 15-6.716 15-15v-422c0-8.284-6.716-15-15-15zm-227-15c0-8.271 6.729-15 15-15s15 6.729 15 15v15h-30zm212 437h-272v-392h90v45c0 8.271-6.729 15-15 15s-15-6.729-15-15c0-8.284-6.716-15-15-15s-15 6.716-15 15c0 24.813 20.187 45 45 45s45-20.187 45-45v-45h152zm-177.606-266.607-19.394 19.393-19.394-19.393c-5.857-5.858-15.355-5.858-21.213 0s-5.858 15.355 0 21.213l30 30c2.929 2.929 6.768 4.394 10.606 4.394s7.678-1.464 10.606-4.394l30-30c5.858-5.858 5.858-15.355 0-21.213-5.856-5.858-15.354-5.858-21.211 0zm0 90-19.394 19.393-19.394-19.393c-5.857-5.858-15.355-5.858-21.213 0s-5.858 15.355 0 21.213l30 30c2.929 2.929 6.768 4.394 10.606 4.394s7.678-1.464 10.606-4.394l30-30c5.858-5.858 5.858-15.355 0-21.213-5.856-5.858-15.354-5.858-21.211 0zm70.606-34.393h62c8.284 0 15-6.716 15-15s-6.716-15-15-15h-62c-8.284 0-15 6.716-15 15s6.716 15 15 15zm0 90h62c8.284 0 15-6.716 15-15s-6.716-15-15-15h-62c-8.284 0-15 6.716-15 15s6.716 15 15 15zm-70.606 34.393-19.394 19.393-19.394-19.393c-5.857-5.858-15.355-5.858-21.213 0s-5.858 15.355 0 21.213l30 30c2.929 2.929 6.768 4.394 10.606 4.394s7.678-1.464 10.606-4.394l30-30c5.858-5.858 5.858-15.355 0-21.213-5.856-5.858-15.354-5.858-21.211 0zm70.606 55.607h62c8.284 0 15-6.716 15-15s-6.716-15-15-15h-62c-8.284 0-15 6.716-15 15s6.716 15 15 15z"
                fill="url(#diet_gradient)"
            />
        </g>
    </g>
</svg>
