<?xml version="1.0" encoding="utf-8"?>
<svg viewBox="0 0 740 500"
    xmlns="http://www.w3.org/2000/svg"
    >
    <defs>
        <linearGradient id="Gradient1" x1="0" x2="0" y1="0" y2="1">
            <stop offset="0%" stop-color="#84cc16"/>
            <stop offset="100%" stop-color="#2dd4bf"/>
        </linearGradient>
        <linearGradient id="Gradient2" x1="0" x2="0" y1="0" y2="1">
            <stop offset="0%" stop-color="#60a5fa"/>
            <stop offset="100%" stop-color="#8b5cf6"/>
        </linearGradient>
        <linearGradient id="Gradient3" x1="0" x2="0" y1="0" y2="1">
            <stop offset="0%" stop-color="#f0f0a2"/>
            <stop offset="100%" stop-color="#ffbfef"/>
        </linearGradient>
        <linearGradient id="Gradient4" x1="0" x2="0" y1="0" y2="1">
            <stop offset="0%" stop-color="#ffdd46"/>
            <stop offset="100%" stop-color="#ce57b0"/>
        </linearGradient>
    </defs>
    <ellipse cx="613.356" cy="486.933" rx="121.643" ry="9.212" fill="#e6e6e6"/>
    <path d="M 127.548 213.234 C 127.587 203.858 119.646 196.189 110.325 196.189 L 23.836 196.189 C 14.663 196.189 6.738 203.731 6.63 212.958 C 6.563 218.275 8.981 223.315 13.162 226.569 C 14.237 227.375 14.806 228.696 14.653 230.037 C 14.553 230.785 14.503 231.538 14.503 232.293 L 14.503 292.472 C 14.503 301.788 22.01 309.34 31.271 309.34 L 102.344 309.34 C 111.605 309.34 119.112 301.788 119.112 292.472 L 119.112 232.293 C 119.112 231.633 119.073 230.973 118.998 230.317 C 118.86 228.995 119.445 227.702 120.528 226.939 C 124.918 223.768 127.529 218.671 127.548 213.234 Z" fill="#E3A10F"/>
    <path d="M 123.802 211.583 C 122.91 204.828 117.152 199.802 110.378 199.866 L 23.81 199.866 C 17.507 199.81 12.01 204.166 10.588 210.344 C 9.376 216 11.933 221.796 16.915 224.686 C 18.358 225.516 19.059 227.222 18.619 228.833 C 18.312 229.961 18.157 231.126 18.158 232.296 L 18.158 292.47 C 18.159 298.814 22.647 304.26 28.844 305.437 C 29.646 305.587 30.459 305.663 31.274 305.663 L 102.347 305.663 C 103.547 305.665 104.741 305.499 105.896 305.171 C 111.549 303.57 115.455 298.383 115.456 292.475 L 115.456 232.29 C 115.457 231.195 115.321 230.104 115.051 229.042 C 114.978 228.748 114.94 228.446 114.939 228.143 C 114.94 226.787 115.683 225.543 116.873 224.907 L 116.879 224.901 C 121.701 222.327 124.451 217.035 123.802 211.583 Z" fill="#EBDB93"/>
    <path d="M 115.456 238.055 L 115.456 232.397 L 105.896 232.397 L 105.896 199.866 L 100.271 199.866 L 100.271 232.397 L 70.182 232.397 L 70.182 199.866 L 64.557 199.866 L 64.557 232.397 L 34.468 232.397 L 34.468 199.866 L 28.844 199.866 L 28.844 232.397 L 18.158 232.397 L 18.158 238.055 L 28.844 238.055 L 28.844 255.028 L 18.158 255.028 L 18.158 260.685 L 28.844 260.685 L 28.844 277.658 L 18.158 277.658 L 18.158 283.316 L 28.844 283.316 L 28.844 305.437 C 29.646 305.587 30.459 305.663 31.274 305.663 L 34.468 305.663 L 34.468 283.316 L 64.557 283.316 L 64.557 305.663 L 70.182 305.663 L 70.182 283.316 L 100.271 283.316 L 100.271 305.663 L 102.347 305.663 C 103.547 305.665 104.741 305.499 105.896 305.171 L 105.896 283.316 L 115.456 283.316 L 115.456 277.658 L 105.896 277.658 L 105.896 260.685 L 115.456 260.685 L 115.456 255.028 L 105.896 255.028 L 105.896 238.055 Z M 34.468 238.055 L 64.557 238.055 L 64.557 255.028 L 34.468 255.028 Z M 34.468 277.658 L 34.468 260.685 L 64.557 260.685 L 64.557 277.658 Z M 100.271 277.658 L 70.182 277.658 L 70.182 260.685 L 100.271 260.685 Z M 100.271 255.028 L 70.182 255.028 L 70.182 238.055 L 100.271 238.055 Z" opacity="0.2" fill="#BE721B" />
    <g transform="matrix(0.897457, 0, 0, 0.90279, -19.142941, 9.4054)" style="">
        <g>
            <circle style="stroke: rgb(108, 99, 255);" cx="96" cy="96" r="62" fill="#f86363"/>
            <path d="M 57.321 103.833 C 57.321 105.413 56.761 106.693 56.069 106.693 C 55.378 106.693 54.818 105.413 54.818 103.833 C 54.894 102.764 55.336 101.754 56.069 100.973 C 56.803 101.754 57.245 102.764 57.321 103.833 Z" fill="#3f3d56"/>
            <path d="M 120.603 113.844 C 120.603 115.423 120.043 116.704 119.352 116.704 C 118.661 116.704 118.101 115.423 118.101 113.844 C 118.177 112.775 118.619 111.765 119.352 110.984 C 120.085 111.765 120.527 112.775 120.603 113.844 Z" fill="#3f3d56"/>
            <path d="M 74.125 108.123 C 74.125 109.703 73.564 110.983 72.873 110.983 C 72.182 110.983 71.622 109.703 71.622 108.123 C 71.698 107.054 72.14 106.044 72.873 105.263 C 73.607 106.044 74.049 107.054 74.125 108.123 Z" fill="#3f3d56"/>
            <path d="M 99.152 130.648 C 99.152 132.227 98.591 133.508 97.9 133.508 C 97.209 133.508 96.649 132.227 96.649 130.648 C 96.725 129.579 97.167 128.569 97.9 127.787 C 98.634 128.569 99.076 129.579 99.152 130.648 Z" fill="#3f3d56"/>
            <path d="M 72.337 127.787 C 72.337 129.367 71.777 130.648 71.086 130.648 C 70.395 130.648 69.834 129.367 69.834 127.787 C 69.91 126.718 70.352 125.708 71.086 124.927 C 71.819 125.708 72.261 126.718 72.337 127.787 Z" fill="#3f3d56"/>
            <path d="M 134.904 100.973 C 134.904 102.552 134.344 103.833 133.653 103.833 C 132.962 103.833 132.402 102.552 132.402 100.973 C 132.478 99.904 132.92 98.894 133.653 98.112 C 134.387 98.894 134.829 99.904 134.904 100.973 Z" fill="#3f3d56"/>
            <path d="M 112.023 136.368 C 112.023 137.948 111.462 139.228 110.771 139.228 C 110.08 139.228 109.52 137.948 109.52 136.368 C 109.596 135.299 110.038 134.289 110.771 133.508 C 111.505 134.289 111.947 135.299 112.023 136.368 Z" fill="#3f3d56"/>
            <path d="M 136.037 88.236 C 136.037 89.567 135.512 90.645 134.864 90.645 C 134.216 90.645 133.692 89.567 133.692 88.236 C 133.763 87.336 134.177 86.486 134.864 85.828 C 135.552 86.486 135.966 87.336 136.037 88.236 Z" fill="#3f3d56" style="" transform="matrix(-1, 0, 0, -1, 269.729004, 176.473)"/>
            <path d="M 76.747 79.807 C 76.747 81.136 76.222 82.215 75.575 82.215 C 74.927 82.215 74.402 81.136 74.402 79.807 C 74.474 78.907 74.888 78.056 75.575 77.399 C 76.261 78.056 76.675 78.907 76.747 79.807 Z" fill="#3f3d56" style="" transform="matrix(-1, 0, 0, -1, 151.149002, 159.613998)"/>
            <path d="M 120.293 84.624 C 120.293 85.954 119.767 87.032 119.12 87.032 C 118.472 87.032 117.948 85.954 117.948 84.624 C 118.019 83.724 118.433 82.873 119.12 82.216 C 119.807 82.873 120.222 83.724 120.293 84.624 Z" fill="#3f3d56" style="" transform="matrix(-1, 0, 0, -1, 238.240997, 169.248001)"/>
            <path d="M 96.844 65.659 C 96.844 66.989 96.318 68.067 95.671 68.067 C 95.023 68.067 94.499 66.989 94.499 65.659 C 94.57 64.759 94.984 63.908 95.671 63.25 C 96.359 63.908 96.773 64.759 96.844 65.659 Z" fill="#3f3d56" style="" transform="matrix(-1, 0, 0, -1, 191.343002, 131.317001)"/>
            <path d="M 121.969 68.066 C 121.969 69.396 121.444 70.475 120.796 70.475 C 120.149 70.475 119.623 69.396 119.623 68.066 C 119.695 67.166 120.109 66.315 120.796 65.658 C 121.483 66.315 121.897 67.166 121.969 68.066 Z" fill="#3f3d56" style="" transform="matrix(-1, 0, 0, -1, 241.592003, 136.132996)"/>
            <path d="M 63.348 90.646 C 63.348 91.976 62.824 93.054 62.176 93.054 C 61.529 93.054 61.004 91.976 61.004 90.646 C 61.075 89.746 61.49 88.896 62.176 88.237 C 62.864 88.896 63.278 89.746 63.348 90.646 Z" fill="#3f3d56" style="" transform="matrix(-1, 0, 0, -1, 124.352001, 181.291)"/>
            <path d="M 84.786 60.842 C 84.786 62.173 84.26 63.25 83.613 63.25 C 82.965 63.25 82.441 62.173 82.441 60.842 C 82.512 59.942 82.926 59.092 83.613 58.434 C 84.301 59.092 84.715 59.942 84.786 60.842 Z" fill="#3f3d56" style="" transform="matrix(-1, 0, 0, -1, 167.227005, 121.683998)"/>
        </g>
        <path d="M 493.193 191.635 m -66 0 a 66 66 0 1 0 132 0 a 66 66 0 1 0 -132 0 Z M 493.193 191.635 m -61 0 a 61 61 0 0 1 122 0 a 61 61 0 0 1 -122 0 Z" style="stroke-width: 0px;" transform="matrix(-0.83697, 0.547249, -0.547249, -0.83697, 613.659549, -13.506026)" fill="#5c975c" />
    </g>
    <rect x="157.239" y="92.216" width="19.882" height="20" fill="#3f3d56"/>
    <rect x="209.353" y="117.2" width="260" height="2" fill="#3f3d56"/>
    <rect x="157.239" y="242.765" width="19.882" height="20" fill="#3f3d56"/>
    <rect x="209.353" y="267.749" width="260" height="2" fill="#3f3d56"/>
    <rect x="157.239" y="392.266" width="19.882" height="20" fill="#3f3d56"/>
    <rect x="209.353" y="417.25" width="260" height="2" fill="#3f3d56"/>
    <path d="M 600.666 114.544 L 575.269 134.682 L 521.452 115.656 C 521.452 115.656 503.155 94.952 492.809 110.373 C 489.265 115.654 512.475 125.41 514.665 126.317 C 520.139 128.584 572.579 157.524 577.718 153.727 C 582.857 149.931 611.769 130.727 611.769 130.727 Z" fill="#a0616a"/>
    <path d="M 687.361 80.193 C 663.29 71.145 640.393 66.864 621.828 80.193 L 621.828 37.176 C 621.828 18.972 636.498 4.215 654.594 4.215 L 654.594 4.215 C 672.691 4.215 687.361 18.972 687.361 37.176 Z" fill="url(#Gradient4)"/>
    <path d="M 626.879 174.164 L 624.912 188.014 C 624.912 188.014 619.995 202.854 624.912 230.554 L 545.744 447.703 L 604.259 464.521 L 633.271 345.806 L 674.083 255.286 L 670.15 358.172 L 649.498 467.984 L 710.471 465.51 L 728.24 277.217 C 731.113 247.459 725.981 217.471 713.382 190.392 C 708.453 179.862 703.154 171.563 698.345 170.358 C 683.918 166.745 626.879 174.164 626.879 174.164 Z" fill="url(#Gradient2)"/>
    <path d="M 553.12 446.219 L 532.959 467.984 C 532.959 467.984 494.113 488.264 521.649 490.737 C 549.187 493.21 558.529 482.328 558.529 482.328 C 558.529 482.328 592.95 479.855 592.457 474.909 C 591.966 469.962 589.508 453.639 589.508 453.639 Z" fill="#baa0f5"/>
    <path d="M 662.528 451.467 L 662.528 466.801 C 662.528 466.801 663.02 473.231 662.528 474.715 C 662.037 476.199 654.661 494.501 679.247 490.544 C 703.834 486.587 693.999 471.253 693.999 471.253 L 688.098 448.994 Z" fill="#baa0f5"/>
    <circle cx="657.77" cy="42.465" r="24.856" fill="#a0616a" transform="matrix(0.994093, 0, 0, 1, 0.407939, 0)"/>
    <path d="M 671.38 56.191 C 671.38 56.191 667.937 88.838 671.38 94.774 C 674.821 100.709 636.467 88.838 636.467 88.838 C 636.467 88.838 644.826 66.579 641.876 57.675 C 638.925 48.772 671.38 56.191 671.38 56.191 Z" fill="#a0616a"/>
    <path d="M 691.049 150.174 L 698.916 171.938 L 625.649 180.347 C 625.649 180.347 617.782 178.863 617.782 172.433 C 617.782 166.003 609.423 143.249 609.423 143.249 C 609.423 143.249 588.949 126.556 579.115 122.105 C 575.55 120.492 580.882 121.158 583.882 114.312 C 584.782 112.254 585.859 110.083 587.034 107.882 C 587.993 106.076 589.026 104.246 590.083 102.441 C 591.366 100.239 592.689 98.073 593.972 96.01 C 597.857 89.773 601.402 84.53 602.539 82.408 C 605.98 75.977 638.341 75.403 638.341 75.403 C 647.595 81.26 674.33 82.408 674.33 82.408 C 674.33 82.408 692.72 90.149 700.381 96.01 C 700.937 96.431 691.049 150.174 691.049 150.174 Z" fill="url(#Gradient1)"/>
    <path d="M 675.142 12.626 L 675.142 12.036 L 674.445 12.075 C 666.418 5.926 656.024 3.837 646.264 6.41 C 650.881 7.638 655.174 9.869 658.841 12.947 L 635.157 14.271 L 625.16 36.617 L 631.925 36.617 L 637.378 26.561 L 637.378 36.617 L 660.259 36.617 L 661.813 28.796 L 666.134 36.617 L 670.629 36.617 C 670.657 37.175 670.7 37.729 670.7 38.293 L 666.257 81.31 L 687.361 72.372 L 687.361 38.293 C 687.369 28.316 682.874 18.875 675.142 12.626 Z" fill="url(#Gradient3)"/>
    <path d="M 708.258 126.431 L 706.783 165.508 L 702.85 241.189 C 702.85 241.189 708.258 273.835 694.49 273.341 C 680.722 272.846 691.049 234.758 691.049 234.758 L 687.115 174.906 L 691.049 132.861 Z" fill="#a0616a"/>
    <path d="M 712.193 147.701 C 712.193 152.153 687.361 150.916 687.361 150.916 L 674.33 82.407 C 674.33 82.407 692.721 90.149 700.381 96.01 C 702.185 97.892 703.659 100.066 704.743 102.441 C 705.328 104.028 705.884 105.869 706.41 107.882 C 706.931 109.88 707.418 112.052 707.876 114.312 C 710.021 125.338 711.463 136.49 712.193 147.701 Z" fill="url(#Gradient1)"/>
    <path d="M 66.42 399.731 L 28.781 395.81 C 30.099 386.653 21.068 379.495 12.524 382.926 C 4.727 386.058 2.488 396.092 8.207 402.276 C 1.955 409.069 5.358 420.123 14.332 422.173 C 22.889 424.128 30.553 416.452 28.649 407.836 L 66.42 404.343 Z" fill="#ccc"/>
    <path d="M 104.694 425.753 C 119.491 429.413 134.396 418.856 135.168 403.548 C 135.189 403.124 135.2 402.696 135.2 402.266 C 135.2 401.836 135.19 401.409 135.168 400.985 C 134.396 385.677 119.491 375.119 104.694 378.779 L 54.498 391.196 C 46.026 391.188 40.723 400.408 44.952 407.792 C 46.918 411.226 50.558 413.34 54.498 413.337 Z" fill="#f9906f"/>
    <text x="209.603" y="258.408" class="font-sans text-4xl font-medium tracking-tighter text-gray-700 whitespace-pre fill-current" >Save recipes</text>
    <text x="209.603" y="107.261" class="font-sans text-4xl font-medium tracking-tighter text-gray-700 whitespace-pre fill-current" >Log your meals</text>
    <text x="209.603" y="407.455" class="font-sans text-4xl font-medium tracking-tighter text-gray-700 whitespace-pre fill-current" >Track your weight</text>
</svg>
